<svg width="45" height="45" viewBox="0 0 45 45" fill="none" xmlns="http://www.w3.org/2000/svg">
<path d="M40.9854 11.8271V33.1719L22.5 43.8447L4.01465 33.1719V11.8271L22.5 1.1543L40.9854 11.8271Z" stroke="#64FFDA" stroke-width="2"/>
<path d="M14.2445 33.1601C14.3381 33.4199 14.6246 33.5546 14.8844 33.461C15.1442 33.3674 15.2789 33.0809 15.1853 32.8211L14.7149 32.9906L14.2445 33.1601ZM7.79993 13.7999L7.79993 13.2999L7.08829 13.2999L7.32953 13.9694L7.79993 13.7999ZM10.6799 13.7999L11.1503 13.6304L11.0312 13.2999L10.6799 13.2999L10.6799 13.7999ZM25.5407 14.2999C25.8169 14.2999 26.0407 14.0761 26.0407 13.7999C26.0407 13.5238 25.8169 13.2999 25.5407 13.2999L25.5407 13.7999L25.5407 14.2999ZM22.6607 13.2999C22.3846 13.2999 22.1607 13.5238 22.1607 13.7999C22.1607 14.0761 22.3846 14.2999 22.6607 14.2999L22.6607 13.7999L22.6607 13.2999ZM18.6287 33.4999C18.9049 33.4999 19.1287 33.2761 19.1287 32.9999C19.1287 32.7238 18.9049 32.4999 18.6287 32.4999V32.9999V33.4999ZM14.7119 32.4999C14.4358 32.4999 14.2119 32.7238 14.2119 32.9999C14.2119 33.2761 14.4358 33.4999 14.7119 33.4999V32.9999V32.4999ZM24.6191 16.3599V15.8599H24.2678L24.1487 16.1905L24.6191 16.3599ZM18.1583 32.8212C18.0647 33.081 18.1995 33.3674 18.4593 33.461C18.7191 33.5546 19.0056 33.4199 19.0991 33.1601L18.6287 32.9906L18.1583 32.8212ZM21.6239 30.3236V29.8236H21.2844L21.1592 30.1392L21.6239 30.3236ZM20.1224 32.753C20.0205 33.0097 20.1461 33.3003 20.4028 33.4021C20.6595 33.5039 20.9501 33.3784 21.0519 33.1217L20.5871 32.9373L20.1224 32.753ZM16.1393 30.426C16.2329 30.6858 16.5194 30.8205 16.7792 30.7269C17.039 30.6333 17.1737 30.3468 17.0801 30.087L16.6097 30.2565L16.1393 30.426ZM23.0705 13.9694C23.1641 13.7096 23.0294 13.4231 22.7696 13.3295C22.5098 13.2359 22.2233 13.3706 22.1297 13.6304L22.6001 13.7999L23.0705 13.9694ZM16.1999 30.087C16.1063 30.3468 16.241 30.6333 16.5008 30.7269C16.7606 30.8205 17.0471 30.6858 17.1407 30.426L16.6703 30.2565L16.1999 30.087ZM25.5442 13.2999C25.268 13.2999 25.0442 13.5238 25.0442 13.7999C25.0442 14.0761 25.268 14.2999 25.5442 14.2999V13.7999V13.2999ZM35.3362 14.2999C35.6123 14.2999 35.8362 14.0761 35.8362 13.7999C35.8362 13.5238 35.6123 13.2999 35.3362 13.2999V13.7999V14.2999ZM20.5871 32.4999C20.311 32.4999 20.0871 32.7238 20.0871 32.9999C20.0871 33.2761 20.311 33.4999 20.5871 33.4999V32.9999V32.4999ZM27.3839 33.4999C27.6601 33.4999 27.8839 33.2761 27.8839 32.9999C27.8839 32.7238 27.6601 32.4999 27.3839 32.4999V32.9999V33.4999ZM27.3839 30.8236C27.6601 30.8236 27.8839 30.5997 27.8839 30.3236C27.8839 30.0474 27.6601 29.8236 27.3839 29.8236V30.3236V30.8236ZM25.3129 21.2977C25.4065 21.0379 25.2717 20.7514 25.012 20.6578C24.7522 20.5642 24.4657 20.6989 24.3721 20.9587L24.8425 21.1282L25.3129 21.2977ZM23.0038 24.756C22.9102 25.0158 23.0449 25.3023 23.3047 25.3959C23.5645 25.4895 23.851 25.3548 23.9446 25.095L23.4742 24.9255L23.0038 24.756ZM32.4527 16.8599C32.7289 16.8599 32.9527 16.6361 32.9527 16.3599C32.9527 16.0838 32.7289 15.8599 32.4527 15.8599V16.3599V16.8599ZM24.8495 20.6308C24.5734 20.6308 24.3495 20.8547 24.3495 21.1308C24.3495 21.407 24.5734 21.6308 24.8495 21.6308V21.1308V20.6308ZM29.4575 21.6308C29.7337 21.6308 29.9575 21.407 29.9575 21.1308C29.9575 20.8547 29.7337 20.6308 29.4575 20.6308V21.1308V21.6308ZM23.4671 24.4708C23.191 24.4708 22.9671 24.6947 22.9671 24.9708C22.9671 25.247 23.191 25.4708 23.4671 25.4708V24.9708V24.4708ZM28.0751 25.4708C28.3513 25.4708 28.5751 25.247 28.5751 24.9708C28.5751 24.6947 28.3513 24.4708 28.0751 24.4708V24.9708V25.4708ZM27.3839 22.609C27.1078 22.609 26.8839 22.8329 26.8839 23.109C26.8839 23.3852 27.1078 23.609 27.3839 23.609L27.3839 23.109L27.3839 22.609ZM29.8031 23.609C30.0793 23.609 30.3031 23.3852 30.3031 23.109C30.3031 22.8329 30.0793 22.609 29.8031 22.609L29.8031 23.109L29.8031 23.609ZM14.7149 32.9906L15.1853 32.8211L8.27032 13.6304L7.79993 13.7999L7.32953 13.9694L14.2445 33.1601L14.7149 32.9906ZM10.6799 13.7999L10.6799 13.2999L7.79993 13.2999L7.79993 13.7999L7.79993 14.2999L10.6799 14.2999L10.6799 13.7999ZM25.5407 13.7999L25.5407 13.2999L22.6607 13.2999L22.6607 13.7999L22.6607 14.2999L25.5407 14.2999L25.5407 13.7999ZM18.6287 32.9999V32.4999H14.7119V32.9999V33.4999H18.6287V32.9999ZM24.6191 16.3599L24.1487 16.1905L18.1583 32.8212L18.6287 32.9906L19.0991 33.1601L25.0895 16.5294L24.6191 16.3599ZM21.6239 30.3236L21.1592 30.1392L20.1224 32.753L20.5871 32.9373L21.0519 33.1217L22.0887 30.5079L21.6239 30.3236ZM16.6097 30.2565L17.0801 30.087L11.1503 13.6304L10.6799 13.7999L10.2095 13.9694L16.1393 30.426L16.6097 30.2565ZM22.6001 13.7999L22.1297 13.6304L16.1999 30.087L16.6703 30.2565L17.1407 30.426L23.0705 13.9694L22.6001 13.7999ZM25.5442 13.7999V14.2999H35.3362V13.7999V13.2999H25.5442V13.7999ZM20.5871 32.9999V33.4999H27.3839V32.9999V32.4999H20.5871V32.9999ZM21.6239 30.3236V30.8236H27.3839V30.3236V29.8236H21.6239V30.3236ZM24.8425 21.1282L24.3721 20.9587L23.0038 24.756L23.4742 24.9255L23.9446 25.095L25.3129 21.2977L24.8425 21.1282ZM24.6191 16.3599V16.8599H32.4527V16.3599V15.8599H24.6191V16.3599ZM32.6903 13.7999V14.2999H35.175V13.7999V13.2999H32.6903V13.7999ZM35.175 13.7999V14.2999C35.381 14.2999 35.5334 14.3754 35.6642 14.5268C35.8083 14.6935 35.9346 14.9661 36.0139 15.3545C36.1725 16.1308 36.1116 17.215 35.8333 18.3338C35.556 19.4486 35.0765 20.5428 34.4477 21.3463C33.8172 22.152 33.0859 22.609 32.295 22.609V23.109V23.609C33.5087 23.609 34.4998 22.9024 35.2352 21.9626C35.9723 21.0207 36.5022 19.7876 36.8037 18.5752C37.1043 17.3667 37.1916 16.1236 36.9937 15.1544C36.8948 14.6701 36.7167 14.2154 36.4209 13.873C36.1118 13.5153 35.689 13.2999 35.175 13.2999V13.7999ZM32.295 23.109V22.609H30.3185V23.109V23.609H32.295V23.109ZM29.4789 23.109V23.609H32.1742V23.109V22.609H29.4789V23.109ZM32.1742 23.109V23.609C32.4146 23.609 32.5922 23.6968 32.7404 23.8648C32.9016 24.0475 33.0398 24.3422 33.1262 24.7565C33.299 25.5854 33.2324 26.7407 32.93 27.9314C32.6288 29.1179 32.1073 30.2843 31.4218 31.1424C30.7352 32.0017 29.9305 32.4999 29.0501 32.4999V32.9999V33.4999C30.3444 33.4999 31.408 32.7618 32.2031 31.7666C32.9992 30.7701 33.5727 29.4638 33.8993 28.1775C34.2248 26.8956 34.319 25.5781 34.1051 24.5524C33.9982 24.0395 33.8062 23.5614 33.4903 23.2033C33.1613 22.8303 32.7149 22.609 32.1742 22.609V23.109ZM29.0501 32.9999V32.4999H26.9062V32.9999V33.4999H29.0501V32.9999ZM31.003 16.3599V16.8599H32.7297V16.3599V15.8599H31.003V16.3599ZM32.7297 16.3599V16.8599C32.8741 16.8599 32.9553 16.9002 33.008 16.9452C33.0667 16.9953 33.1287 17.0852 33.1713 17.2388C33.2595 17.5573 33.2326 18.046 33.0506 18.5856C32.6789 19.6877 31.8081 20.6308 30.7283 20.6308V21.1308V21.6308C32.4348 21.6308 33.5654 20.1885 33.9982 18.9052C34.2184 18.252 34.2945 17.548 34.135 16.9719C34.0537 16.6783 33.9042 16.3955 33.6572 16.1846C33.4043 15.9687 33.0856 15.8599 32.7297 15.8599V16.3599ZM30.7283 21.1308V20.6308H29.3549V21.1308V21.6308H30.7283V21.1308ZM27.6449 24.9708V25.4708H29.4558V24.9708V24.4708H27.6449V24.9708ZM29.4558 24.9708V25.4708C29.6032 25.4708 29.6898 25.5142 29.751 25.5701C29.8203 25.6334 29.892 25.7463 29.9402 25.9325C30.0388 26.3134 30.0062 26.8819 29.8124 27.4969C29.6209 28.1043 29.2896 28.6997 28.8577 29.1351C28.4293 29.567 27.9228 29.8236 27.3568 29.8236V30.3236V30.8236C28.2519 30.8236 29.0007 30.411 29.5677 29.8393C30.1313 29.2711 30.5357 28.5283 30.7661 27.7975C30.9941 27.0744 31.0695 26.3046 30.9083 25.6819C30.8266 25.3663 30.6765 25.061 30.4253 24.8316C30.1659 24.5948 29.8332 24.4708 29.4558 24.4708V24.9708ZM27.3568 30.3236V29.8236H25.9163V30.3236V30.8236H27.3568V30.3236ZM24.8495 21.1308V21.6308H29.4575V21.1308V20.6308H24.8495V21.1308ZM23.4671 24.9708V25.4708H28.0751V24.9708V24.4708H23.4671V24.9708ZM27.3839 23.109L27.3839 23.609L29.8031 23.609L29.8031 23.109L29.8031 22.609L27.3839 22.609L27.3839 23.109Z" fill="#64FFDA"/>
</svg>
